<svg xmlns="http://www.w3.org/2000/svg" viewBox="0 0 96 96" role="img" aria-label="wallet">
  <defs>
    <linearGradient id="g" x1="20" y1="8" x2="76" y2="88" gradientUnits="userSpaceOnUse">
      <stop stop-color="#FFF7B0"/>
      <stop offset=".48" stop-color="#F5C33D"/>
      <stop offset="1" stop-color="#C77905"/>
    </linearGradient>
    <linearGradient id="s" x1="26" y1="28" x2="72" y2="70" gradientUnits="userSpaceOnUse">
      <stop stop-color="#183B5A"/>
      <stop offset="1" stop-color="#071829"/>
    </linearGradient>
    <filter id="shadow" x="-20%" y="-20%" width="140%" height="150%">
      <feDropShadow dx="0" dy="8" stdDeviation="5" flood-color="#0b1d31" flood-opacity=".35"/>
    </filter>
  </defs>
  <rect x="12" y="10" width="72" height="72" rx="24" fill="url(#g)" filter="url(#shadow)"/>
  <path d="M26 36h40c7 0 12 5 12 12v18c0 5-4 9-9 9H28c-6 0-10-4-10-10V42c0-4 3-6 8-6Z" fill="url(#s)"/>
  <path d="M30 29h32c5 0 9 4 9 9v3H28c-4 0-7 3-7 7v-8c0-6 4-11 9-11Z" fill="#274C6D"/>
  <rect x="57" y="47" width="20" height="18" rx="7" fill="#F7C33D"/>
  <circle cx="64" cy="56" r="3.6" fill="#19324C"/>
  <path d="M24 34c7-9 24-15 45-11" fill="none" stroke="#FFF8C8" stroke-width="4" stroke-linecap="round" opacity=".7"/>
</svg>
