<svg xmlns="http://www.w3.org/2000/svg" viewBox="0 0 760 360" role="img" aria-labelledby="title desc">
  <title id="title">TH2.VIP &#3650;&#3610;&#3609;&#3633;&#3626;&#3605;&#3657;&#3629;&#3609;&#3619;&#3633;&#3610;</title>
  <desc id="desc">&#3611;&#3657;&#3634;&#3618;&#3650;&#3611;&#3619;&#3650;&#3617;&#3594;&#3633;&#3656;&#3609;&#3614;&#3619;&#3657;&#3629;&#3617;&#3648;&#3627;&#3619;&#3637;&#3618;&#3597;&#3607;&#3629;&#3591;&#3649;&#3621;&#3632;&#3650;&#3610;&#3609;&#3633;&#3626;&#3605;&#3657;&#3629;&#3609;&#3619;&#3633;&#3610;</desc>
  <defs>
    <linearGradient id="bg" x1="0" y1="0" x2="1" y2="1">
      <stop offset="0" stop-color="#071d31"/>
      <stop offset=".52" stop-color="#145b8e"/>
      <stop offset="1" stop-color="#f4ba34"/>
    </linearGradient>
    <linearGradient id="gold" x1="0" y1="0" x2="0" y2="1">
      <stop offset="0" stop-color="#fff1a3"/>
      <stop offset=".55" stop-color="#f6bd31"/>
      <stop offset="1" stop-color="#c87908"/>
    </linearGradient>
    <filter id="shadow" x="-20%" y="-20%" width="140%" height="140%">
      <feDropShadow dx="0" dy="14" stdDeviation="12" flood-color="#031320" flood-opacity=".34"/>
    </filter>
  </defs>
  <rect width="760" height="360" rx="28" fill="url(#bg)"/>
  <circle cx="106" cy="70" r="96" fill="#fff5ad" opacity=".18"/>
  <circle cx="640" cy="292" r="138" fill="#081a2c" opacity=".2"/>
  <path d="M0 266 C116 224 178 316 292 273 C380 240 418 196 516 214 C620 234 660 184 760 144 L760 360 L0 360Z" fill="#082033" opacity=".5"/>
  <g filter="url(#shadow)">
    <rect x="478" y="72" width="108" height="152" rx="18" fill="#ffffff" transform="rotate(-12 532 148)"/>
    <rect x="548" y="91" width="108" height="152" rx="18" fill="#ffffff" transform="rotate(9 602 167)"/>
    <text x="515" y="140" fill="#d7193f" font-family="Arial, sans-serif" font-size="52" font-weight="900" transform="rotate(-12 532 148)">A</text>
    <text x="583" y="159" fill="#111827" font-family="Arial, sans-serif" font-size="52" font-weight="900" transform="rotate(9 602 167)">K</text>
  </g>
  <g filter="url(#shadow)">
    <circle cx="594" cy="253" r="40" fill="url(#gold)"/>
    <circle cx="645" cy="238" r="34" fill="url(#gold)"/>
    <circle cx="548" cy="280" r="32" fill="url(#gold)"/>
    <circle cx="594" cy="253" r="25" fill="none" stroke="#7a4100" stroke-width="4" opacity=".45"/>
    <circle cx="645" cy="238" r="21" fill="none" stroke="#7a4100" stroke-width="4" opacity=".45"/>
    <circle cx="548" cy="280" r="20" fill="none" stroke="#7a4100" stroke-width="4" opacity=".45"/>
  </g>
  <g filter="url(#shadow)">
    <rect x="52" y="44" width="112" height="44" rx="22" fill="#ffffff" opacity=".15"/>
    <text x="74" y="73" fill="#ffe483" font-family="Arial, sans-serif" font-size="22" font-weight="900">TH2.VIP</text>
    <text x="52" y="143" fill="#ffffff" font-family="Arial, sans-serif" font-size="48" font-weight="900">&#3618;&#3636;&#3609;&#3604;&#3637;&#3605;&#3657;&#3629;&#3609;&#3619;&#3633;&#3610;</text>
    <text x="52" y="196" fill="#ffe083" font-family="Arial, sans-serif" font-size="60" font-weight="900">&#3650;&#3610;&#3609;&#3633;&#3626;</text>
    <text x="56" y="235" fill="#dff4ff" font-family="Arial, sans-serif" font-size="22" font-weight="700">&#3619;&#3633;&#3610;&#3619;&#3634;&#3591;&#3623;&#3633;&#3621;&#3607;&#3640;&#3585;&#3623;&#3633;&#3609;&#3649;&#3621;&#3632;&#3586;&#3629;&#3591;&#3586;&#3623;&#3633;&#3597;&#3626;&#3617;&#3634;&#3594;&#3636;&#3585;&#3651;&#3627;&#3617;&#3656;</text>
    <rect x="54" y="262" width="186" height="46" rx="23" fill="url(#gold)"/>
    <text x="91" y="293" fill="#3b2500" font-family="Arial, sans-serif" font-size="18" font-weight="900">&#3604;&#3641;&#3619;&#3634;&#3618;&#3621;&#3632;&#3648;&#3629;&#3637;&#3618;&#3604;</text>
  </g>
</svg>
